<mxfile host="app.diagrams.net" modified="2024-07-19T00:50:59.054Z" agent="Mozilla/5.0 (Windows NT 10.0; Win64; x64) AppleWebKit/537.36 (KHTML, like Gecko) Chrome/126.0.0.0 Safari/537.36" etag="bZ0MlXnot3PsuDGgVn-6" version="24.7.1" type="github">
  <diagram name="Page-1" id="MBGFNzazFSzJqntIxKix">
    <mxGraphModel dx="1636" dy="1016" grid="1" gridSize="10" guides="1" tooltips="1" connect="1" arrows="1" fold="1" page="1" pageScale="1" pageWidth="827" pageHeight="1169" math="0" shadow="0">
      <root>
        <mxCell id="0" />
        <mxCell id="1" parent="0" />
        <mxCell id="hMNyNa46EgzdUmZVy9RF-1" value="&lt;b&gt;inicio&lt;/b&gt;" style="rounded=1;whiteSpace=wrap;html=1;" vertex="1" parent="1">
          <mxGeometry x="355" y="30" width="90" height="30" as="geometry" />
        </mxCell>
        <mxCell id="hMNyNa46EgzdUmZVy9RF-15" value="" style="edgeStyle=orthogonalEdgeStyle;rounded=0;orthogonalLoop=1;jettySize=auto;html=1;" edge="1" parent="1">
          <mxGeometry relative="1" as="geometry">
            <mxPoint x="399.5" y="140" as="sourcePoint" />
            <mxPoint x="399.5" y="179" as="targetPoint" />
          </mxGeometry>
        </mxCell>
        <mxCell id="hMNyNa46EgzdUmZVy9RF-3" value="&lt;b&gt;pegue quantidade de pacotes igual ao numero de pessoas&lt;/b&gt;" style="whiteSpace=wrap;html=1;aspect=fixed;" vertex="1" parent="1">
          <mxGeometry x="252.5" y="270" width="90" height="90" as="geometry" />
        </mxCell>
        <mxCell id="hMNyNa46EgzdUmZVy9RF-4" value="&lt;b&gt;para 1 pessoas?&lt;/b&gt;" style="rhombus;whiteSpace=wrap;html=1;" vertex="1" parent="1">
          <mxGeometry x="342.5" y="180" width="115" height="60" as="geometry" />
        </mxCell>
        <mxCell id="hMNyNa46EgzdUmZVy9RF-22" value="" style="edgeStyle=orthogonalEdgeStyle;rounded=0;orthogonalLoop=1;jettySize=auto;html=1;" edge="1" parent="1" source="hMNyNa46EgzdUmZVy9RF-7">
          <mxGeometry relative="1" as="geometry">
            <mxPoint x="500" y="265" as="targetPoint" />
          </mxGeometry>
        </mxCell>
        <mxCell id="hMNyNa46EgzdUmZVy9RF-7" value="Sim" style="text;html=1;align=center;verticalAlign=middle;resizable=0;points=[];autosize=1;strokeColor=none;fillColor=none;" vertex="1" parent="1">
          <mxGeometry x="480" y="180" width="40" height="30" as="geometry" />
        </mxCell>
        <mxCell id="hMNyNa46EgzdUmZVy9RF-8" value="Não" style="text;html=1;align=center;verticalAlign=middle;resizable=0;points=[];autosize=1;strokeColor=none;fillColor=none;" vertex="1" parent="1">
          <mxGeometry x="260" y="180" width="50" height="30" as="geometry" />
        </mxCell>
        <mxCell id="hMNyNa46EgzdUmZVy9RF-12" value="" style="endArrow=classic;html=1;rounded=0;" edge="1" parent="1">
          <mxGeometry width="50" height="50" relative="1" as="geometry">
            <mxPoint x="399.5" y="60" as="sourcePoint" />
            <mxPoint x="399.5" y="100" as="targetPoint" />
          </mxGeometry>
        </mxCell>
        <mxCell id="hMNyNa46EgzdUmZVy9RF-14" value="&lt;b&gt;pegue uma panela adequada&lt;/b&gt;" style="whiteSpace=wrap;html=1;" vertex="1" parent="1">
          <mxGeometry x="340" y="100" width="120" height="40" as="geometry" />
        </mxCell>
        <mxCell id="hMNyNa46EgzdUmZVy9RF-16" style="edgeStyle=orthogonalEdgeStyle;rounded=0;orthogonalLoop=1;jettySize=auto;html=1;exitX=0.75;exitY=0;exitDx=0;exitDy=0;entryX=1;entryY=0;entryDx=0;entryDy=0;" edge="1" parent="1" source="hMNyNa46EgzdUmZVy9RF-1" target="hMNyNa46EgzdUmZVy9RF-1">
          <mxGeometry relative="1" as="geometry" />
        </mxCell>
        <mxCell id="hMNyNa46EgzdUmZVy9RF-24" value="" style="edgeStyle=orthogonalEdgeStyle;rounded=0;orthogonalLoop=1;jettySize=auto;html=1;" edge="1" parent="1">
          <mxGeometry relative="1" as="geometry">
            <mxPoint x="300" y="215" as="sourcePoint" />
            <mxPoint x="300" y="270" as="targetPoint" />
          </mxGeometry>
        </mxCell>
        <mxCell id="hMNyNa46EgzdUmZVy9RF-25" value="" style="endArrow=none;html=1;rounded=0;" edge="1" parent="1" target="hMNyNa46EgzdUmZVy9RF-4">
          <mxGeometry width="50" height="50" relative="1" as="geometry">
            <mxPoint x="300" y="210" as="sourcePoint" />
            <mxPoint x="350" y="160" as="targetPoint" />
          </mxGeometry>
        </mxCell>
        <mxCell id="hMNyNa46EgzdUmZVy9RF-27" value="" style="endArrow=none;html=1;rounded=0;" edge="1" parent="1">
          <mxGeometry width="50" height="50" relative="1" as="geometry">
            <mxPoint x="457.5" y="209" as="sourcePoint" />
            <mxPoint x="500.5" y="209" as="targetPoint" />
          </mxGeometry>
        </mxCell>
        <mxCell id="hMNyNa46EgzdUmZVy9RF-34" value="&lt;b&gt;pegue 1 pacote&lt;/b&gt;" style="whiteSpace=wrap;html=1;" vertex="1" parent="1">
          <mxGeometry x="445" y="270" width="105" height="30" as="geometry" />
        </mxCell>
        <mxCell id="hMNyNa46EgzdUmZVy9RF-35" value="" style="endArrow=classic;html=1;rounded=0;" edge="1" parent="1">
          <mxGeometry width="50" height="50" relative="1" as="geometry">
            <mxPoint x="510" y="410" as="sourcePoint" />
            <mxPoint x="464" y="409.5" as="targetPoint" />
          </mxGeometry>
        </mxCell>
        <mxCell id="hMNyNa46EgzdUmZVy9RF-36" value="&lt;b&gt;pegue a pabela&lt;/b&gt;" style="whiteSpace=wrap;html=1;" vertex="1" parent="1">
          <mxGeometry x="364" y="390" width="100" height="30" as="geometry" />
        </mxCell>
        <mxCell id="hMNyNa46EgzdUmZVy9RF-37" value="" style="endArrow=classic;html=1;rounded=0;entryX=0;entryY=0.5;entryDx=0;entryDy=0;" edge="1" parent="1">
          <mxGeometry width="50" height="50" relative="1" as="geometry">
            <mxPoint x="300" y="410" as="sourcePoint" />
            <mxPoint x="364" y="409.5" as="targetPoint" />
          </mxGeometry>
        </mxCell>
        <mxCell id="hMNyNa46EgzdUmZVy9RF-40" value="" style="endArrow=none;html=1;rounded=0;entryX=0.494;entryY=1;entryDx=0;entryDy=0;entryPerimeter=0;" edge="1" parent="1" target="hMNyNa46EgzdUmZVy9RF-3">
          <mxGeometry width="50" height="50" relative="1" as="geometry">
            <mxPoint x="297" y="410" as="sourcePoint" />
            <mxPoint x="297" y="370" as="targetPoint" />
          </mxGeometry>
        </mxCell>
        <mxCell id="hMNyNa46EgzdUmZVy9RF-41" value="" style="endArrow=none;html=1;rounded=0;" edge="1" parent="1">
          <mxGeometry width="50" height="50" relative="1" as="geometry">
            <mxPoint x="510" y="410" as="sourcePoint" />
            <mxPoint x="510" y="300" as="targetPoint" />
          </mxGeometry>
        </mxCell>
        <mxCell id="hMNyNa46EgzdUmZVy9RF-42" value="" style="endArrow=classic;html=1;rounded=0;" edge="1" parent="1">
          <mxGeometry width="50" height="50" relative="1" as="geometry">
            <mxPoint x="413.6" y="420" as="sourcePoint" />
            <mxPoint x="413.6" y="440" as="targetPoint" />
          </mxGeometry>
        </mxCell>
        <mxCell id="hMNyNa46EgzdUmZVy9RF-44" value="&lt;b&gt;coloque a água&lt;/b&gt;" style="whiteSpace=wrap;html=1;" vertex="1" parent="1">
          <mxGeometry x="368" y="440" width="96" height="30" as="geometry" />
        </mxCell>
        <mxCell id="hMNyNa46EgzdUmZVy9RF-46" value="&lt;b&gt;acenda o fogo&lt;/b&gt;" style="whiteSpace=wrap;html=1;" vertex="1" parent="1">
          <mxGeometry x="361" y="500" width="106" height="30" as="geometry" />
        </mxCell>
        <mxCell id="hMNyNa46EgzdUmZVy9RF-49" value="" style="endArrow=classic;html=1;rounded=0;entryX=0.481;entryY=-0.147;entryDx=0;entryDy=0;entryPerimeter=0;" edge="1" parent="1" target="hMNyNa46EgzdUmZVy9RF-46">
          <mxGeometry width="50" height="50" relative="1" as="geometry">
            <mxPoint x="413" y="470" as="sourcePoint" />
            <mxPoint x="413" y="490" as="targetPoint" />
          </mxGeometry>
        </mxCell>
        <mxCell id="hMNyNa46EgzdUmZVy9RF-50" value="" style="endArrow=classic;html=1;rounded=0;" edge="1" parent="1">
          <mxGeometry width="50" height="50" relative="1" as="geometry">
            <mxPoint x="410" y="530" as="sourcePoint" />
            <mxPoint x="410" y="560" as="targetPoint" />
          </mxGeometry>
        </mxCell>
        <mxCell id="hMNyNa46EgzdUmZVy9RF-51" value="&lt;b&gt;coloque a panela no fogo&lt;/b&gt;" style="whiteSpace=wrap;html=1;" vertex="1" parent="1">
          <mxGeometry x="361" y="560" width="106" height="30" as="geometry" />
        </mxCell>
        <mxCell id="hMNyNa46EgzdUmZVy9RF-53" value="" style="endArrow=classic;html=1;rounded=0;" edge="1" parent="1">
          <mxGeometry width="50" height="50" relative="1" as="geometry">
            <mxPoint x="410" y="590" as="sourcePoint" />
            <mxPoint x="410.5" y="625" as="targetPoint" />
          </mxGeometry>
        </mxCell>
        <mxCell id="hMNyNa46EgzdUmZVy9RF-54" value="&lt;b&gt;espere 4 minutos&lt;/b&gt;" style="whiteSpace=wrap;html=1;" vertex="1" parent="1">
          <mxGeometry x="357" y="630" width="110" height="30" as="geometry" />
        </mxCell>
        <mxCell id="hMNyNa46EgzdUmZVy9RF-55" value="&lt;b&gt;coloque o macarrão&lt;/b&gt;" style="whiteSpace=wrap;html=1;" vertex="1" parent="1">
          <mxGeometry x="359" y="680" width="110" height="30" as="geometry" />
        </mxCell>
        <mxCell id="hMNyNa46EgzdUmZVy9RF-60" value="" style="endArrow=classic;html=1;rounded=0;" edge="1" parent="1">
          <mxGeometry width="50" height="50" relative="1" as="geometry">
            <mxPoint x="411.6" y="660" as="sourcePoint" />
            <mxPoint x="410" y="680" as="targetPoint" />
          </mxGeometry>
        </mxCell>
        <mxCell id="hMNyNa46EgzdUmZVy9RF-62" value="&lt;b&gt;espere 3 minutos&lt;/b&gt;" style="whiteSpace=wrap;html=1;" vertex="1" parent="1">
          <mxGeometry x="359" y="730" width="101" height="30" as="geometry" />
        </mxCell>
        <mxCell id="hMNyNa46EgzdUmZVy9RF-63" value="" style="endArrow=classic;html=1;rounded=0;" edge="1" parent="1">
          <mxGeometry width="50" height="50" relative="1" as="geometry">
            <mxPoint x="410.3" y="710" as="sourcePoint" />
            <mxPoint x="408.7" y="730" as="targetPoint" />
          </mxGeometry>
        </mxCell>
        <mxCell id="hMNyNa46EgzdUmZVy9RF-65" value="&lt;b&gt;Apague o fogo&lt;/b&gt;" style="whiteSpace=wrap;html=1;" vertex="1" parent="1">
          <mxGeometry x="368" y="800" width="81" height="30" as="geometry" />
        </mxCell>
        <mxCell id="hMNyNa46EgzdUmZVy9RF-67" value="" style="endArrow=classic;html=1;rounded=0;" edge="1" parent="1">
          <mxGeometry width="50" height="50" relative="1" as="geometry">
            <mxPoint x="407.6" y="760" as="sourcePoint" />
            <mxPoint x="408.1" y="795" as="targetPoint" />
          </mxGeometry>
        </mxCell>
        <mxCell id="hMNyNa46EgzdUmZVy9RF-71" value="" style="endArrow=classic;html=1;rounded=0;" edge="1" parent="1">
          <mxGeometry width="50" height="50" relative="1" as="geometry">
            <mxPoint x="408.1" y="830" as="sourcePoint" />
            <mxPoint x="408.1" y="900" as="targetPoint" />
          </mxGeometry>
        </mxCell>
        <mxCell id="hMNyNa46EgzdUmZVy9RF-73" style="edgeStyle=orthogonalEdgeStyle;rounded=0;orthogonalLoop=1;jettySize=auto;html=1;exitX=0.25;exitY=0;exitDx=0;exitDy=0;" edge="1" parent="1" source="hMNyNa46EgzdUmZVy9RF-72">
          <mxGeometry relative="1" as="geometry">
            <mxPoint x="420" y="990" as="targetPoint" />
          </mxGeometry>
        </mxCell>
        <mxCell id="hMNyNa46EgzdUmZVy9RF-72" value="&lt;b&gt;SIRVA O MACARRÃO&lt;/b&gt;" style="whiteSpace=wrap;html=1;" vertex="1" parent="1">
          <mxGeometry x="362" y="900" width="98" height="30" as="geometry" />
        </mxCell>
        <mxCell id="hMNyNa46EgzdUmZVy9RF-74" value="&lt;b&gt;FIM&lt;/b&gt;" style="rhombus;whiteSpace=wrap;html=1;" vertex="1" parent="1">
          <mxGeometry x="380" y="990" width="80" height="30" as="geometry" />
        </mxCell>
      </root>
    </mxGraphModel>
  </diagram>
</mxfile>
